<svg width="381" height="61" viewBox="0 0 381 61" fill="none" xmlns="http://www.w3.org/2000/svg">
<path d="M38.8359 39.2578C38.8359 46.0286 37.3906 51.3151 34.5 55.1172C31.6094 58.8932 27.5729 60.7812 22.3906 60.7812C17.8073 60.7812 14.1484 59.0234 11.4141 55.5078L10.9062 60H0.75V0H12.0391V21.5234C14.6432 18.4766 18.0677 16.9531 22.3125 16.9531C27.4688 16.9531 31.5052 18.8542 34.4219 22.6562C37.3646 26.4323 38.8359 31.7578 38.8359 38.6328V39.2578ZM27.5469 38.4375C27.5469 34.1667 26.8698 31.0547 25.5156 29.1016C24.1615 27.1224 22.1432 26.1328 19.4609 26.1328C15.8672 26.1328 13.3932 27.6042 12.0391 30.5469V47.2266C13.4193 50.1953 15.9193 51.6797 19.5391 51.6797C23.1849 51.6797 25.5807 49.8828 26.7266 46.2891C27.2734 44.5703 27.5469 41.9531 27.5469 38.4375ZM65.2812 60.7812C59.0833 60.7812 54.0312 58.8802 50.125 55.0781C46.2448 51.276 44.3047 46.2109 44.3047 39.8828V38.7891C44.3047 34.5443 45.125 30.7552 46.7656 27.4219C48.4062 24.0625 50.724 21.4844 53.7188 19.6875C56.7396 17.8646 60.1771 16.9531 64.0312 16.9531C69.8125 16.9531 74.3568 18.776 77.6641 22.4219C80.9974 26.0677 82.6641 31.237 82.6641 37.9297V42.5391H55.75C56.1146 45.2995 57.2083 47.513 59.0312 49.1797C60.8802 50.8464 63.2109 51.6797 66.0234 51.6797C70.3724 51.6797 73.7708 50.1042 76.2188 46.9531L81.7656 53.1641C80.0729 55.5599 77.7812 57.4349 74.8906 58.7891C72 60.1172 68.7969 60.7812 65.2812 60.7812ZM63.9922 26.0938C61.7526 26.0938 59.9297 26.849 58.5234 28.3594C57.1432 29.8698 56.2578 32.0312 55.8672 34.8438H71.5703V33.9453C71.5182 31.4453 70.8411 29.5182 69.5391 28.1641C68.237 26.7839 66.388 26.0938 63.9922 26.0938ZM112.859 28.3203C111.323 28.112 109.969 28.0078 108.797 28.0078C104.526 28.0078 101.727 29.4531 100.398 32.3438V60H89.1094V17.7344H99.7734L100.086 22.7734C102.352 18.8932 105.49 16.9531 109.5 16.9531C110.75 16.9531 111.922 17.1224 113.016 17.4609L112.859 28.3203ZM128.719 17.7344L129.07 22.6172C132.091 18.8411 136.141 16.9531 141.219 16.9531C145.698 16.9531 149.031 18.2682 151.219 20.8984C153.406 23.5286 154.526 27.4609 154.578 32.6953V60H143.289V32.9688C143.289 30.5729 142.768 28.8411 141.727 27.7734C140.685 26.6797 138.953 26.1328 136.531 26.1328C133.354 26.1328 130.971 27.487 129.383 30.1953V60H118.094V17.7344H128.719ZM176.688 7.34375V17.7344H183.914V26.0156H176.688V47.1094C176.688 48.6719 176.987 49.7917 177.586 50.4688C178.185 51.1458 179.331 51.4844 181.023 51.4844C182.273 51.4844 183.38 51.3932 184.344 51.2109V59.7656C182.13 60.4427 179.852 60.7812 177.508 60.7812C169.591 60.7812 165.555 56.7839 165.398 48.7891V26.0156H159.227V17.7344H165.398V7.34375H176.688ZM226.453 50.8984H247.117V60H212.039V53.125L231.922 26.875H212.625V17.7344H246.492V24.4141L226.453 50.8984ZM251.805 38.4766C251.805 34.2839 252.612 30.5469 254.227 27.2656C255.841 23.9844 258.159 21.4453 261.18 19.6484C264.227 17.8516 267.755 16.9531 271.766 16.9531C277.469 16.9531 282.117 18.6979 285.711 22.1875C289.331 25.6771 291.349 30.4167 291.766 36.4062L291.844 39.2969C291.844 45.7812 290.034 50.9896 286.414 54.9219C282.794 58.8281 277.938 60.7812 271.844 60.7812C265.75 60.7812 260.88 58.8281 257.234 54.9219C253.615 51.0156 251.805 45.7031 251.805 38.9844V38.4766ZM263.094 39.2969C263.094 43.3073 263.849 46.3802 265.359 48.5156C266.87 50.625 269.031 51.6797 271.844 51.6797C274.578 51.6797 276.714 50.638 278.25 48.5547C279.786 46.4453 280.555 43.0859 280.555 38.4766C280.555 34.5443 279.786 31.4974 278.25 29.3359C276.714 27.1745 274.552 26.0938 271.766 26.0938C269.005 26.0938 266.87 27.1745 265.359 29.3359C263.849 31.4714 263.094 34.7917 263.094 39.2969ZM309.188 17.7344L309.539 22.6172C312.56 18.8411 316.609 16.9531 321.688 16.9531C326.167 16.9531 329.5 18.2682 331.688 20.8984C333.875 23.5286 334.995 27.4609 335.047 32.6953V60H323.758V32.9688C323.758 30.5729 323.237 28.8411 322.195 27.7734C321.154 26.6797 319.422 26.1328 317 26.1328C313.823 26.1328 311.44 27.487 309.852 30.1953V60H298.562V17.7344H309.188ZM363.094 60.7812C356.896 60.7812 351.844 58.8802 347.938 55.0781C344.057 51.276 342.117 46.2109 342.117 39.8828V38.7891C342.117 34.5443 342.938 30.7552 344.578 27.4219C346.219 24.0625 348.536 21.4844 351.531 19.6875C354.552 17.8646 357.99 16.9531 361.844 16.9531C367.625 16.9531 372.169 18.776 375.477 22.4219C378.81 26.0677 380.477 31.237 380.477 37.9297V42.5391H353.562C353.927 45.2995 355.021 47.513 356.844 49.1797C358.693 50.8464 361.023 51.6797 363.836 51.6797C368.185 51.6797 371.583 50.1042 374.031 46.9531L379.578 53.1641C377.885 55.5599 375.594 57.4349 372.703 58.7891C369.812 60.1172 366.609 60.7812 363.094 60.7812ZM361.805 26.0938C359.565 26.0938 357.742 26.849 356.336 28.3594C354.956 29.8698 354.07 32.0312 353.68 34.8438H369.383V33.9453C369.331 31.4453 368.654 29.5182 367.352 28.1641C366.049 26.7839 364.201 26.0938 361.805 26.0938Z" fill="black"/>
<path d="M190.789 54.4531C190.789 52.6562 191.388 51.1979 192.586 50.0781C193.81 48.9583 195.333 48.3984 197.156 48.3984C199.005 48.3984 200.529 48.9583 201.727 50.0781C202.951 51.1979 203.562 52.6562 203.562 54.4531C203.562 56.224 202.964 57.6693 201.766 58.7891C200.568 59.8828 199.031 60.4297 197.156 60.4297C195.307 60.4297 193.784 59.8828 192.586 58.7891C191.388 57.6693 190.789 56.224 190.789 54.4531Z" fill="#3DDD43"/>
</svg>
