<svg width="399" height="113" viewBox="0 0 399 113" fill="none" xmlns="http://www.w3.org/2000/svg">
<rect width="399" height="113" fill="white"/>
<path d="M48.8359 63.2578C48.8359 70.0286 47.3906 75.3151 44.5 79.1172C41.6094 82.8932 37.5729 84.7812 32.3906 84.7812C27.8073 84.7812 24.1484 83.0234 21.4141 79.5078L20.9062 84H10.75V24H22.0391V45.5234C24.6432 42.4766 28.0677 40.9531 32.3125 40.9531C37.4688 40.9531 41.5052 42.8542 44.4219 46.6562C47.3646 50.4323 48.8359 55.7578 48.8359 62.6328V63.2578ZM37.5469 62.4375C37.5469 58.1667 36.8698 55.0547 35.5156 53.1016C34.1615 51.1224 32.1432 50.1328 29.4609 50.1328C25.8672 50.1328 23.3932 51.6042 22.0391 54.5469V71.2266C23.4193 74.1953 25.9193 75.6797 29.5391 75.6797C33.1849 75.6797 35.5807 73.8828 36.7266 70.2891C37.2734 68.5703 37.5469 65.9531 37.5469 62.4375ZM75.2812 84.7812C69.0833 84.7812 64.0312 82.8802 60.125 79.0781C56.2448 75.276 54.3047 70.2109 54.3047 63.8828V62.7891C54.3047 58.5443 55.125 54.7552 56.7656 51.4219C58.4062 48.0625 60.724 45.4844 63.7188 43.6875C66.7396 41.8646 70.1771 40.9531 74.0312 40.9531C79.8125 40.9531 84.3568 42.776 87.6641 46.4219C90.9974 50.0677 92.6641 55.237 92.6641 61.9297V66.5391H65.75C66.1146 69.2995 67.2083 71.513 69.0312 73.1797C70.8802 74.8464 73.2109 75.6797 76.0234 75.6797C80.3724 75.6797 83.7708 74.1042 86.2188 70.9531L91.7656 77.1641C90.0729 79.5599 87.7812 81.4349 84.8906 82.7891C82 84.1172 78.7969 84.7812 75.2812 84.7812ZM73.9922 50.0938C71.7526 50.0938 69.9297 50.849 68.5234 52.3594C67.1432 53.8698 66.2578 56.0312 65.8672 58.8438H81.5703V57.9453C81.5182 55.4453 80.8411 53.5182 79.5391 52.1641C78.237 50.7839 76.388 50.0938 73.9922 50.0938ZM122.859 52.3203C121.323 52.112 119.969 52.0078 118.797 52.0078C114.526 52.0078 111.727 53.4531 110.398 56.3438V84H99.1094V41.7344H109.773L110.086 46.7734C112.352 42.8932 115.49 40.9531 119.5 40.9531C120.75 40.9531 121.922 41.1224 123.016 41.4609L122.859 52.3203ZM138.719 41.7344L139.07 46.6172C142.091 42.8411 146.141 40.9531 151.219 40.9531C155.698 40.9531 159.031 42.2682 161.219 44.8984C163.406 47.5286 164.526 51.4609 164.578 56.6953V84H153.289V56.9688C153.289 54.5729 152.768 52.8411 151.727 51.7734C150.685 50.6797 148.953 50.1328 146.531 50.1328C143.354 50.1328 140.971 51.487 139.383 54.1953V84H128.094V41.7344H138.719ZM186.688 31.3438V41.7344H193.914V50.0156H186.688V71.1094C186.688 72.6719 186.987 73.7917 187.586 74.4688C188.185 75.1458 189.331 75.4844 191.023 75.4844C192.273 75.4844 193.38 75.3932 194.344 75.2109V83.7656C192.13 84.4427 189.852 84.7812 187.508 84.7812C179.591 84.7812 175.555 80.7839 175.398 72.7891V50.0156H169.227V41.7344H175.398V31.3438H186.688ZM236.453 74.8984H257.117V84H222.039V77.125L241.922 50.875H222.625V41.7344H256.492V48.4141L236.453 74.8984ZM261.805 62.4766C261.805 58.2839 262.612 54.5469 264.227 51.2656C265.841 47.9844 268.159 45.4453 271.18 43.6484C274.227 41.8516 277.755 40.9531 281.766 40.9531C287.469 40.9531 292.117 42.6979 295.711 46.1875C299.331 49.6771 301.349 54.4167 301.766 60.4062L301.844 63.2969C301.844 69.7812 300.034 74.9896 296.414 78.9219C292.794 82.8281 287.938 84.7812 281.844 84.7812C275.75 84.7812 270.88 82.8281 267.234 78.9219C263.615 75.0156 261.805 69.7031 261.805 62.9844V62.4766ZM273.094 63.2969C273.094 67.3073 273.849 70.3802 275.359 72.5156C276.87 74.625 279.031 75.6797 281.844 75.6797C284.578 75.6797 286.714 74.638 288.25 72.5547C289.786 70.4453 290.555 67.0859 290.555 62.4766C290.555 58.5443 289.786 55.4974 288.25 53.3359C286.714 51.1745 284.552 50.0938 281.766 50.0938C279.005 50.0938 276.87 51.1745 275.359 53.3359C273.849 55.4714 273.094 58.7917 273.094 63.2969ZM319.188 41.7344L319.539 46.6172C322.56 42.8411 326.609 40.9531 331.688 40.9531C336.167 40.9531 339.5 42.2682 341.688 44.8984C343.875 47.5286 344.995 51.4609 345.047 56.6953V84H333.758V56.9688C333.758 54.5729 333.237 52.8411 332.195 51.7734C331.154 50.6797 329.422 50.1328 327 50.1328C323.823 50.1328 321.44 51.487 319.852 54.1953V84H308.562V41.7344H319.188ZM373.094 84.7812C366.896 84.7812 361.844 82.8802 357.938 79.0781C354.057 75.276 352.117 70.2109 352.117 63.8828V62.7891C352.117 58.5443 352.938 54.7552 354.578 51.4219C356.219 48.0625 358.536 45.4844 361.531 43.6875C364.552 41.8646 367.99 40.9531 371.844 40.9531C377.625 40.9531 382.169 42.776 385.477 46.4219C388.81 50.0677 390.477 55.237 390.477 61.9297V66.5391H363.562C363.927 69.2995 365.021 71.513 366.844 73.1797C368.693 74.8464 371.023 75.6797 373.836 75.6797C378.185 75.6797 381.583 74.1042 384.031 70.9531L389.578 77.1641C387.885 79.5599 385.594 81.4349 382.703 82.7891C379.812 84.1172 376.609 84.7812 373.094 84.7812ZM371.805 50.0938C369.565 50.0938 367.742 50.849 366.336 52.3594C364.956 53.8698 364.07 56.0312 363.68 58.8438H379.383V57.9453C379.331 55.4453 378.654 53.5182 377.352 52.1641C376.049 50.7839 374.201 50.0938 371.805 50.0938Z" fill="black"/>
<path d="M200.789 78.4531C200.789 76.6562 201.388 75.1979 202.586 74.0781C203.81 72.9583 205.333 72.3984 207.156 72.3984C209.005 72.3984 210.529 72.9583 211.727 74.0781C212.951 75.1979 213.562 76.6562 213.562 78.4531C213.562 80.224 212.964 81.6693 211.766 82.7891C210.568 83.8828 209.031 84.4297 207.156 84.4297C205.307 84.4297 203.784 83.8828 202.586 82.7891C201.388 81.6693 200.789 80.224 200.789 78.4531Z" fill="#3DDD43"/>
</svg>
